# generated from PmQm by Jehee Lee
:FULLY-SPECIFIED
:DEGREES
758
root -96.4203412 39.56120415 -54.83470876 162.9385319 -85.52793448 -164.358787
RightUpLeg -19.21342857 2.444918273 -1.025219893
RightLeg 40.82084978 -2.119622086 -5.428732536
RightFoot -9.757833891 10.5583863 3.517118241
RightToes 1.16414e-010 -1.59028e-015 9.93923e-017
Spine -6.444828104 -1.401559903 -0.5689894995
Spine1 10.61699936 -1.276554707 -1.840487636
HEad -3.8202181 2.83248431 0.7010466618
LeftShoulder1 9.93923e-017 0 1.22299e-017
LeftArm 25.68697997 30.14776151 -78.07447733
LeftForeArm -44.23404121 -23.70168464 11.68647604
LeftHand 0.8043590579 5.3581421 -3.210044938
RightShoulder 1.98785e-016 -4.96962e-017 1.55301e-017
RightArm 22.52870669 -51.12060491 83.02181373
RightForeArm -41.4871777 19.01636593 -7.91247724
RightHand 0.9721348305 -9.487195769 -3.441910241
LeftUpLeg -15.24647218 -0.5978461835 0.5656156568
LeftLeg -3.756877186 0 0
LeftFoot 21.06462374 -5.421446965 2.625486507
LeftToes 3.91108e-011 -1.31389e-011 5.36976e-012
759
root -96.72435602 39.75577552 -54.87679826 148.8885179 -85.93545934 -150.0375818
RightUpLeg -16.99529753 2.041981075 0.78758551
RightLeg 29.68169581 -1.550820917 -2.866273209
RightFoot -10.8084308 8.982365755 3.730784169
RightToes 1.16414e-010 -1.59028e-015 9.93923e-017
Spine -7.114318768 -1.936547405 -0.4308426779
Spine1 11.09369783 -1.996767485 -0.7623409495
HEad -4.170527248 3.065059999 0.6790864021
LeftShoulder1 9.93923e-017 0 1.22299e-017
LeftArm 25.92002456 29.15830461 -78.19800189
LeftForeArm -44.73450422 -23.78779323 11.8983389
LeftHand 0.7989084581 5.37564812 -2.832827639
RightShoulder 1.98785e-016 -4.96962e-017 1.55301e-017
RightArm 19.14219675 -52.34844502 82.48822088
RightForeArm -39.24433269 18.59568604 -6.815499202
RightHand 0.9737480776 -9.552051176 -3.342088609
LeftUpLeg -15.14833352 -0.7313100908 1.298247345
LeftLeg -3.756877186 0 0
LeftFoot 20.71003193 -6.362902658 2.811827716
LeftToes 3.91108e-011 -1.31389e-011 5.36976e-012
760
root -97.00640594 39.8924 -54.87733907 140.824221 -86.11333485 -141.7155655
RightUpLeg -14.78763571 2.55677716 2.096507143
RightLeg 19.96517921 -0.7302436847 -0.7616922478
RightFoot -9.114948613 7.801767371 2.919157233
RightToes 1.16414e-010 -1.59028e-015 9.93923e-017
Spine -8.11102 -2.10164 -0.563592
Spine1 11.9189 -2.29655 0.0188069
HEad -4.26516 2.89467 0.788012
LeftShoulder1 9.93923e-017 0 1.22299e-017
LeftArm 26.4663 28.8829 -78.387
LeftForeArm -45.7663 -23.9382 12.2324
LeftHand 0.82107 5.59289 -2.63058
RightShoulder 1.98785e-016 -4.96962e-017 1.55301e-017
RightArm 16.5955 -53.0161 82.316
RightForeArm -36.9364 18.0958 -5.49668
RightHand 0.99842 -9.78071 -3.24576
LeftUpLeg -15.05363501 -0.8548873629 1.570069795
LeftLeg -3.756877186 0 0
LeftFoot 20.60470495 -6.880147294 3.08725154
LeftToes 3.91108e-011 -1.31389e-011 5.36976e-012
761
root -97.27114056 39.9835 -54.85317224 144.3658855 -86.15729208 -145.0019877
RightUpLeg -12.61918559 3.935980612 2.828715324
RightLeg 13.68245419 0 0
RightFoot -4.974344682 7.429878439 0.8828276458
RightToes 1.16414e-010 -1.59028e-015 9.93923e-017
Spine -9.19613 -1.83793 -0.72071
Spine1 12.606 -1.98755 0.0887751
HEad -3.91383 2.4653 0.950354
LeftShoulder1 9.93923e-017 0 1.22299e-017
LeftArm 28.3292 29.3828 -78.498
LeftForeArm -47.8203 -24.3027 13.1049
LeftHand 0.848423 5.82483 -2.63647
RightShoulder 1.98785e-016 -4.96962e-017 1.55301e-017
RightArm 15.3967 -53.4457 82.6497
RightForeArm -35.5567 17.7569 -4.60733
RightHand 1.0132 -9.9358 -3.11419
LeftUpLeg -14.89714885 -0.9528448049 1.347518825
LeftLeg -3.756877186 0 0
LeftFoot 20.45659045 -6.63326054 3.213846203
LeftToes 3.91108e-011 -1.31389e-011 5.36976e-012
762
root -97.51239169 40.0482 -54.83520362 152.8999249 -86.12768997 -153.3214599
RightUpLeg -11.6640734 4.358814061 2.685252432
RightLeg 10.8267703 0 0
RightFoot -1.39105598 8.883792504 -1.035150461
RightToes 1.16414e-010 -1.59028e-015 9.93923e-017
Spine -10.2358 -1.43347 -0.307674
Spine1 13.1711 -1.34284 -0.75107
HEad -3.53309 2.09824 1.05228
LeftShoulder1 9.93923e-017 0 1.22299e-017
LeftArm 30.5715 30.4282 -78.3977
LeftForeArm -49.5976 -24.6153 13.8058
LeftHand 0.838557 5.74216 -2.62483
RightShoulder 1.98785e-016 -4.96962e-017 1.55301e-017
RightArm 15.2038 -53.5933 83.5633
RightForeArm -35.2337 17.7219 -4.46716
RightHand 0.997034 -9.85863 -2.89236
LeftUpLeg -14.65785252 -1.118805868 0.9474486363
LeftLeg -3.756877186 0 0
LeftFoot 20.01013578 -6.0324352 3.059970914
LeftToes 3.91108e-011 -1.31389e-011 5.36976e-012
763
root -97.72279906 40.0962 -54.83924952 156.9869013 -86.14730726 -157.251027
RightUpLeg -10.48030103 4.039272861 2.530738603
RightLeg 8.939647539 0 0
RightFoot -0.07730720752 9.768097683 -1.1281908
RightToes 1.16414e-010 -1.59028e-015 9.93923e-017
Spine -11.2193 -1.15577 0.842427
Spine1 13.8228 -0.78328 -2.07323
HEad -3.55593 1.93653 0.994329
LeftShoulder1 9.93923e-017 0 1.22299e-017
LeftArm 31.7149 31.6286 -78.2835
LeftForeArm -49.6275 -24.4698 13.1802
LeftHand 0.802597 5.44371 -2.5687
RightShoulder 1.98785e-016 -4.96962e-017 1.55301e-017
RightArm 16.4288 -53.3037 84.6767
RightForeArm -36.6081 18.1115 -5.38727
RightHand 0.96393 -9.63976 -2.64664
LeftUpLeg -14.41158278 -1.246547294 0.7446924308
LeftLeg -3.756877186 0 0
LeftFoot 19.48290629 -5.720797224 2.77517445
LeftToes 3.91108e-011 -1.31389e-011 5.36976e-012
764
root -97.90068376 40.1438 -54.84971632 155.7918091 -86.13670674 -155.8553659
RightUpLeg -9.270504193 3.377222003 2.779445016
RightLeg 6.721752408 0 0
RightFoot 0.3053575055 10.05256578 -0.1605285266
RightToes 1.16414e-010 -1.59028e-015 9.93923e-017
Spine -12.1096 -0.923782 2.17311
Spine1 14.422 -0.405082 -3.06027
HEad -3.92761 1.84754 0.844251
LeftShoulder1 9.93923e-017 0 1.22299e-017
LeftArm 30.1154 32.7289 -78.489
LeftForeArm -46.5183 -23.5612 10.2384
LeftHand 0.78127 5.27286 -2.49926
RightShoulder 1.98785e-016 -4.96962e-017 1.55301e-017
RightArm 19.7935 -52.6708 85.4347
RightForeArm -40.3425 18.8797 -7.59296
RightHand 0.941714 -9.46686 -2.5713
LeftUpLeg -14.30383368 -1.182089335 0.8280773503
LeftLeg -3.756877186 0 0
LeftFoot 19.03336236 -5.666016468 2.548797319
LeftToes 3.91108e-011 -1.31389e-011 5.36976e-012
765
root -98.050308 40.1792 -54.83803221 155.5208633 -85.90718739 -155.3176429
RightUpLeg -8.59854789 3.069194825 3.076868673
RightLeg 5.050222712 0 0
RightFoot 0.9803691003 10.36854107 0.1596074588
RightToes 1.16414e-010 -1.59028e-015 9.93923e-017
Spine -12.695 -0.57559 2.97671
Spine1 14.6735 -0.0661553 -3.34457
HEad -4.41211 1.70861 0.803971
LeftShoulder1 9.93923e-017 0 1.22299e-017
LeftArm 24.5607 33.7199 -78.9855
LeftForeArm -39.5785 -21.4428 5.06366
LeftHand 0.789334 5.34311 -2.48195
RightShoulder 1.98785e-016 -4.96962e-017 1.55301e-017
RightArm 24.0522 -51.8181 85.7211
RightForeArm -44.9926 19.5972 -10.5275
RightHand 0.939393 -9.398 -2.78343
LeftUpLeg -14.30625506 -1.025077522 0.9356719836
LeftLeg -3.756877186 0 0
LeftFoot 18.51295314 -5.42007589 2.400417953
LeftToes 3.91108e-011 -1.31389e-011 5.36976e-012
766
root -98.17550671 40.1843 -54.80004631 158.5185135 -85.52179789 -158.1476119
RightUpLeg -8.647055423 3.30903274 3.01141995
RightLeg 5.042395329 0 0
RightFoot 1.399981434 10.79905797 -0.3448986047
RightToes 1.16414e-010 -1.59028e-015 9.93923e-017
Spine -12.8119 -0.206633 3.21064
Spine1 14.6346 0.257431 -3.27034
HEad -5.03184 1.6135 0.969543
LeftShoulder1 9.93923e-017 0 1.22299e-017
LeftArm 17.098 34.7919 -79.4605
LeftForeArm -31.2076 -17.9952 -0.170191
LeftHand 0.821202 5.56804 -2.8502
RightShoulder 1.98785e-016 -4.96962e-017 1.55301e-017
RightArm 26.9184 -50.594 85.8757
RightForeArm -48.2173 19.9742 -13.0791
RightHand 0.946497 -9.37657 -3.14678
LeftUpLeg -14.19359063 -0.9829959868 0.9001253893
LeftLeg -3.756877186 0 0
LeftFoot 17.87678372 -4.893623017 2.225227088
LeftToes 3.91108e-011 -1.31389e-011 5.36976e-012
767
root -98.27927293 40.1653 -54.75653499 161.6728852 -85.16880754 -161.3372308
RightUpLeg -8.945047345 3.637410962 2.726375353
RightLeg 6.009982357 0 0
RightFoot 1.011647163 11.09498323 -0.7614084346
RightToes 1.16414e-010 -1.59028e-015 9.93923e-017
Spine -12.6158 -0.0287683 3.34646
Spine1 14.596 0.441799 -3.34066
HEad -5.84945 1.72158 1.23973
LeftShoulder1 9.93923e-017 0 1.22299e-017
LeftArm 11.76 36.0662 -79.7411
LeftForeArm -24.6444 -14.5124 -3.59698
LeftHand 0.870747 5.90316 -3.83709
RightShoulder 1.98785e-016 -4.96962e-017 1.55301e-017
RightArm 27.9148 -48.8919 86.191
RightForeArm -49.7834 20.1246 -14.8324
RightHand 0.954919 -9.37883 -3.45376
LeftUpLeg -13.87227869 -1.046197141 0.8024327528
LeftLeg -3.756877186 0 0
LeftFoot 17.26984349 -4.404414262 1.969655511
LeftToes 3.91108e-011 -1.31389e-011 5.36976e-012
768
root -98.36923692 40.1518 -54.72177246 163.0849135 -84.98891581 -162.8469436
RightUpLeg -9.050269026 3.712830311 2.53748545
RightLeg 6.619387805 0 0
RightFoot 0.4847787593 11.24252941 -0.8286397586
RightToes 1.16414e-010 -1.59028e-015 9.93923e-017
Spine -12.4911 -0.0690625 3.65015
Spine1 14.6763 0.451103 -3.65582
HEad -6.60129 1.98199 1.473
LeftShoulder1 9.93923e-017 0 1.22299e-017
LeftArm 10.7923 37.4873 -79.899
LeftForeArm -21.7179 -12.3593 -5.35486
LeftHand 0.92614 6.34477 -5.00202
RightShoulder 1.98785e-016 -4.96962e-017 1.55301e-017
RightArm 28.158 -47.0417 86.6365
RightForeArm -50.9898 20.2254 -16.2068
RightHand 0.967975 -9.4297 -3.70399
LeftUpLeg -13.52624859 -1.069193953 0.7337721898
LeftLeg -3.756877186 0 0
LeftFoot 16.72897626 -4.185363997 1.661004984
LeftToes 3.91108e-011 -1.31389e-011 5.36976e-012
769
root -98.45810006 40.1563 -54.68710152 163.3571994 -85.02406194 -163.1214645
RightUpLeg -8.967205862 3.661223199 2.437991799
RightLeg 6.647696074 0 0
RightFoot 0.4199592453 11.3088271 -0.8885144595
RightToes 1.16414e-010 -1.59028e-015 9.93923e-017
Spine -12.6873 -0.180404 3.94036
Spine1 14.8476 0.383797 -3.96374
HEad -6.94273 2.11594 1.61056
LeftShoulder1 9.93923e-017 0 1.22299e-017
LeftArm 12.0689 39.0138 -79.9617
LeftForeArm -22.0793 -11.4414 -6.2357
LeftHand 0.976072 6.84354 -5.65252
RightShoulder 1.98785e-016 -4.96962e-017 1.55301e-017
RightArm 28.3706 -45.5506 87.0412
RightForeArm -52.3868 20.3611 -17.5891
RightHand 0.98868 -9.52283 -4.02565
LeftUpLeg -13.3277257 -1.020670271 0.6414041228
LeftLeg -3.756877186 0 0
LeftFoot 16.19683545 -4.225480937 1.339927439
LeftToes 3.91108e-011 -1.31389e-011 5.36976e-012
